<?xml version="1.0" encoding="UTF-8"?>
<svg data-name="Calque 1" version="1.1" viewBox="0 0 500.69 104.74" xmlns="http://www.w3.org/2000/svg" xmlns:cc="http://creativecommons.org/ns#" xmlns:dc="http://purl.org/dc/elements/1.1/" xmlns:rdf="http://www.w3.org/1999/02/22-rdf-syntax-ns#">
 <metadata>
  <rdf:RDF>
   <cc:Work rdf:about="">
    <dc:format>image/svg+xml</dc:format>
    <dc:type rdf:resource="http://purl.org/dc/dcmitype/StillImage"/>
   </cc:Work>
  </rdf:RDF>
 </metadata>
 <defs>
  <style>.cls-1{fill:#fff;}.cls-2{fill:none;stroke:#fff;stroke-linecap:round;stroke-miterlimit:10;stroke-width:12px;}</style>
 </defs>
 <g fill="#fff">
  <path d="m163.65 42.47h11.52v5.86c5.4236-7.6193 18.11-10.154 24.692-2.6691 1.8784 0.53841 2.6704 7.2732 4.15 3.0515 5.3028-8.1413 18.187-10.425 25.186-3.2313 4.9223 4.8791 4.6454 12.208 4.7824 18.605v29.384h-11.6c-0.0489-9.8014 0.10566-19.606-0.0928-29.405-0.28726-3.9004-0.62792-8.8784-4.7048-10.729-5.0515-2.1575-10.757 1.8819-11.88 6.9449-1.533 6.317-0.84483 12.868-1.002 19.306v13.884h-11.6c-0.0194-9.5117 0.0442-19.024-0.0428-28.535 0.63332-5.4955-2.8581-13.659-9.5668-11.997-5.4582 1.1382-7.8667 7.1001-8.0684 12.156-0.42131 7.4369-0.14009 14.894-0.22203 22.341v6.0349h-11.55v-51z"/>
  <path d="m278.22 42.47h11.52v51h-11.52v-5.39c-4.6127 5.5968-12.492 8.0879-19.416 5.952-7.6947-2.3981-13.258-9.4316-15.384-17.019-1.8958-7.3179-1.5612-15.344 1.4174-22.332 3.1167-7.1063 9.7846-13.239 17.851-13.503 5.8361-1.1139 12.436 3.7212 15.504 6.4419 9e-3 -1.7167 0.0185-3.4335 0.0277-5.1502zm-12.11 10.5c-8.4239-0.22829-13.363 9.0547-12.383 16.579 0.0928 7.4601 6.8145 15.064 14.678 13.325 6.2611-1.084 10.035-7.3777 10.267-13.345 0.54334-5.8333-1.5625-12.436-7.0613-15.285-1.6888-0.87554-3.5988-1.318-5.5006-1.2742z"/>
  <path d="m302.17 23.67h11.52v18.8h6.8v11h-6.8v40h-11.52v-40h-5.91v-11h5.91v-18.8z"/>
  <path d="m326.12 22.78h11.43v24.84c6.26-7.3897 19.174-9.2134 25.476-0.93086 3.9416 4.7955 3.8143 11.269 3.7539 17.148v29.633h-11.29c-0.0621-9.8046 0.15081-19.614-0.16699-29.414-0.16141-3.9604-0.7637-8.9566-4.9286-10.687-5.59-2.2945-11.221 2.8156-12.151 8.2109-1.0062 8.0874-0.59648 16.258-0.68358 24.399v7.4921h-11.44v-70.69z"/>
  <path d="m378.92 62.11h21.43v11.9h-21.43v-11.9z"/>
  <path d="m430.49 95.2c-3.3333-1.8467-6.6667-3.6933-10-5.54 3.6267-7.8233 7.2533-15.647 10.88-23.47-13.055 0.20846-21.199-14.437-18.657-26.229 1.5002-12.163 15.596-21.316 26.953-15.399 11.777 5.6842 14.768 21.835 8.3161 32.646-5.847 12.656-11.659 25.329-17.492 37.992zm1.48-41.44c5.165 0.07316 8.3278-5.579 7.7306-10.249-0.15206-4.5964-4.3372-9.4224-9.2309-8.3051-6.7472 1.4963-8.5963 11.051-4.2697 15.894 1.3811 1.7092 3.6094 2.7202 5.77 2.66z"/>
  <path d="m491.87 56.08c12.082 8.3028 11.721 29.145-1.05 36.6-6.2515 3.1524-13.725 3.1954-20.39 1.3873-9.1779-2.7763-13.734-13.307-12.735-22.316 0.45727-6.1073 3.6656-11.854 8.4451-15.642-8.4136-8.4639-7.4211-24.748 3.26-30.87 9.276-5.5374 23.144-1.659 26.716 8.9774 3.1103 7.431 1.3242 16.075-4.2465 21.863zm-12.61 7c-6.0648-0.33092-11.287 5.8054-9.9364 11.737 0.85823 6.186 8.0224 9.5747 13.601 7.3981 6.6336-2.121 8.0532-11.623 3.295-16.275-1.7816-1.8836-4.3925-2.9233-6.96-2.86zm-0.47-27.65c-4.6675-0.20879-7.492 5.0263-6.5428 9.1851 0.48275 4.3921 5.5661 7.6562 9.6293 5.5136 5.5605-2.6803 5.3982-12.535-0.75926-14.392-0.74555-0.2442-1.5638-0.32249-2.3272-0.3067z"/>
  <path d="m59.101 3.9062e-4c-3.1579 0.020023-5.9936 2.1132-6.9434 5.125l-0.035157 0.11328-20.809 76.387-5.2559-13.008c-1.319-3.2896-4.5595-5.4647-8.1035-5.4375h-2e-3l-11.998 0.08984a6.0006 6.0006 0 1 0 0.089844 12l9.7305-0.07227 10.236 25.336 0.01563 0.0371c1.1179 2.6651 4.0953 4.3019 6.666 4.1445 2.5707-0.15739 5.3269-2.1442 6.1113-4.9258l0.0078-0.02734 23.906-87.762h63.662a6.0006 6.0006 0 1 0 0-12h-67.26z" color="#000000" color-rendering="auto" dominant-baseline="auto" image-rendering="auto" shape-rendering="auto" solid-color="#000000" style="font-feature-settings:normal;font-variant-alternates:normal;font-variant-caps:normal;font-variant-ligatures:normal;font-variant-numeric:normal;font-variant-position:normal;isolation:auto;mix-blend-mode:normal;shape-padding:0;text-decoration-color:#000000;text-decoration-line:none;text-decoration-style:solid;text-indent:0;text-orientation:mixed;text-transform:none;white-space:normal"/>
  <path d="m63.83 37.891 23.85 26.916-25.85 29.174h19.23l16.236-18.32 16.232 18.32h19.24l-25.855-29.174 23.855-26.916h-19.24l-14.232 16.062-14.236-16.062h-19.23z"/>
 </g>
</svg>
